:version 1.10
:name ASF
:units
  mass 1
  length 1
  angle deg
:documentation
  ASF file generated by Kaydara
:root
  axis xyz
  order  tx ty tz rx ry rz
  position 0 0 0
  orientation 0 0 0
:bonedata
  begin
    id 1
    name RightUpLegDummy
    direction -1 2.30186e-007 8.31532e-007
    length 4.46685
    axis 0 0 0 xyz
  end
  begin
    id 2
    name RightUpLeg
    direction -2.30187e-007 -1 1.24343e-010
    length 16.4045
    axis -3.49089 -0.000906625 0.000286804 xyz
    dof rx ry rz
  end
  begin
    id 3
    name RightLeg
    direction -2.30181e-007 -1 -4.17157e-009
    length 17.5097
    axis 3.68512 0.0193738 -0.131023 xyz
    dof rx ry rz
  end
  begin
    id 4
    name RightFoot
    direction 8.31421e-007 -4.51202e-011 1
    length 6.49508
    axis 4.81691e-005 -0.120479 -0.188788 xyz
    dof rx ry rz
  end
  begin
    id 5
    name RightToes
    direction 0.00124746 -0.014064 0.9999
    length 3.85082
    axis 0.000481921 0.542163 -0.142578 xyz
    dof rx ry rz
  end
  begin
    id 6
    name SpineDummy
    direction 0.0717043 0.9409 -0.331007
    length 10.0032
    axis 0 0 0 xyz
  end
  begin
    id 7
    name Spine
    direction 2.30186e-007 1 4.58806e-011
    length 9.84055
    axis -0.001389 0.000121418 2.40972e-006 xyz
    dof rx ry rz
  end
  begin
    id 8
    name Spine1
    direction 0 0 0
    length 0
    axis -0.001389 0.000121451 1.30017e-006 xyz
    dof rx ry rz
  end
  begin
    id 9
    name HEadDummy
    direction -0.00347485 0.950688 -0.310128
    length 8.00997
    axis -0.001389 0.000121451 1.30017e-006 xyz
  end
  begin
    id 10
    name HEad
    direction -0.0222688 0.980941 0.193023
    length 5.12695
    axis -0.001389 0.000121451 1.30017e-006 xyz
    dof rx ry rz
  end
  begin
    id 11
    name LeftShoulder1Dummy
    direction 0.988871 0.146793 -0.0242004
    length 3.5792
    axis -0.001389 0.000121451 1.30017e-006 xyz
  end
  begin
    id 12
    name LeftShoulder1
    direction 0.993832 0.108932 0.020779
    length 4.16823
    axis -0.001389 0.000121451 1.30017e-006 xyz
    dof rx ry rz
  end
  begin
    id 13
    name LeftArm
    direction 1 3.44807e-006 -8.31404e-007
    length 9.91437
    axis -23.1894 0.134784 0.967509 xyz
    dof rx ry rz
  end
  begin
    id 14
    name LeftForeArm
    direction 1 3.44842e-006 -8.31581e-007
    length 9.08575
    axis -9.91835 -0.06569 -0.177793 xyz
    dof rx ry rz
  end
  begin
    id 15
    name LeftHand
    direction 0.992938 -0.0411636 0.11126
    length 5.32135
    axis -0.00960232 -0.00340091 0.185173 xyz
    dof rx ry rz
  end
  begin
    id 16
    name RightShoulderDummy
    direction -0.988871 0.146793 -0.0241962
    length 3.5792
    axis -0.001389 0.000121451 1.30017e-006 xyz
  end
  begin
    id 17
    name RightShoulder
    direction -0.993832 0.108933 0.0207785
    length 4.16823
    axis 0.215806 0.000203643 -0.0068026 xyz
    dof rx ry rz
  end
  begin
    id 18
    name RightArm
    direction -1 3.90912e-006 8.31284e-007
    length 9.91437
    axis -23.2009 -0.134239 -0.964101 xyz
    dof rx ry rz
  end
  begin
    id 19
    name RightForeArm
    direction -1 3.90882e-006 8.31502e-007
    length 9.08575
    axis -9.92322 0.0658061 0.178867 xyz
    dof rx ry rz
  end
  begin
    id 20
    name RightHand
    direction -0.992843 -0.0414603 0.112003
    length 5.28593
    axis -0.00960638 0.00330671 -0.185228 xyz
    dof rx ry rz
  end
  begin
    id 21
    name LeftUpLegDummy
    direction 1 -2.30186e-007 -8.31532e-007
    length 4.46685
    axis 0 0 0 xyz
  end
  begin
    id 22
    name LeftUpLeg
    direction -2.30187e-007 -1 6.00931e-010
    length 16.4045
    axis -3.48766 0.00143442 -0.000524262 xyz
    dof rx ry rz
  end
  begin
    id 23
    name LeftLeg
    direction -2.30187e-007 -1 1.6669e-009
    length 17.5097
    axis 3.68178 -0.00654042 -0.000285133 xyz
    dof rx ry rz
  end
  begin
    id 24
    name LeftFoot
    direction 8.31532e-007 -4.54478e-011 1
    length 6.49508
    axis 1.87233e-006 4.66016e-005 -8.6538e-006 xyz
    dof rx ry rz
  end
  begin
    id 25
    name LeftToes
    direction 0.00818058 -0.00485161 0.999955
    length 3.85048
    axis 1.06247e-005 4.65869e-005 -8.65513e-006 xyz
    dof rx ry rz
  end
:hierarchy
  begin
    root RightUpLegDummy SpineDummy LeftUpLegDummy
    RightUpLegDummy RightUpLeg
    RightUpLeg RightLeg
    RightLeg RightFoot
    RightFoot RightToes
    SpineDummy Spine
    Spine Spine1
    Spine1 HEadDummy LeftShoulder1Dummy RightShoulderDummy
    HEadDummy HEad
    LeftShoulder1Dummy LeftShoulder1
    LeftShoulder1 LeftArm
    LeftArm LeftForeArm
    LeftForeArm LeftHand
    RightShoulderDummy RightShoulder
    RightShoulder RightArm
    RightArm RightForeArm
    RightForeArm RightHand
    LeftUpLegDummy LeftUpLeg
    LeftUpLeg LeftLeg
    LeftLeg LeftFoot
    LeftFoot LeftToes
  end

:SAMPLES-PER-SECOND 30
:FULLY-SPECIFIED
:DEGREES
131
root  49.3516 31.4983 21.6535 -171.513 -60.7763 178.03
RightUpLeg  -23.2584 -20.0543 -17.2818
RightLeg  23.1022 -3.35202 -1.18352
RightFoot  9.9346 0.0738447 -0.472035
RightToes  -44.9213 -0.258941 -0.341201
Spine  6.33104 -0.994998 0.136637
Spine1  12.0052 -1.862 -0.594383
HEad  5.6636 3.35176 7.90701
LeftShoulder1  0 -2.42657e-020 -4.95415e-022
LeftArm  -24.8753 5.02687 -86.1981
LeftForeArm  48.2501 -29.7774 -5.76138
LeftHand  0.0334687 -10.6112 -0.730826
RightShoulder  0 2.42657e-020 1.07489e-018
RightArm  -39.8718 -7.25963 77.5317
RightForeArm  46.6626 24.82 4.65258
RightHand  -1.99116 21.1875 -10.2497
LeftUpLeg  -17.0739 4.41654 17.2542
LeftLeg  32.9644 -10.4493 -5.81138
LeftFoot  -3.23341 0.0100014 0.354342
LeftToes  -47.3164 3.33339e-006 -4.73431e-007
132
root  48.8436 31.551 23.0647 -170.738 -60.8785 177.2
RightUpLeg  -20.4693 -18.1257 -20.0144
RightLeg  18.3374 -6.92091 -1.80399
RightFoot  3.72847 0.0223426 -0.308825
RightToes  -39.3157 -0.21304 -0.311224
Spine  6.38935 -1.23593 -0.283307
Spine1  12.1901 -2.29959 -1.31093
HEad  4.57088 3.47358 8.5146
LeftShoulder1  0 -2.42657e-020 -4.95415e-022
LeftArm  -23.2377 5.31148 -85.0522
LeftForeArm  48.0371 -32.5186 -6.42688
LeftHand  -0.0235759 -10.892 -0.122744
RightShoulder  0 2.42657e-020 1.07489e-018
RightArm  -36.3124 -8.63536 78.2848
RightForeArm  44.0781 28.0463 5.36978
RightHand  -2.09619 21.0321 -10.8905
LeftUpLeg  -18.9956 5.90152 14.1705
LeftLeg  35.8346 -10.3121 -6.42461
LeftFoot  -5.67462 0.0468142 0.944547
LeftToes  -44.8525 3.33339e-006 -4.73431e-007
133
root  48.2999 31.6554 24.3999 -170.707 -60.5011 177.119
RightUpLeg  -17.2482 -15.1303 -22.0829
RightLeg  12.6377 -9.7065 -1.51841
RightFoot  -2.88136 0.00702344 0.65697
RightToes  -31.2525 -0.15264 -0.260576
Spine  6.35072 -1.32726 -0.58284
Spine1  12.1779 -2.50283 -1.69308
HEad  4.2534 3.34983 8.94266
LeftShoulder1  0 -2.42657e-020 -4.95415e-022
LeftArm  -21.0271 5.51261 -83.7728
LeftForeArm  47.8082 -34.6434 -6.97235
LeftHand  -0.0620835 -10.8964 0.28115
RightShoulder  0 2.42657e-020 1.07489e-018
RightArm  -34.4752 -9.74998 79.1845
RightForeArm  43.6727 30.8175 6.0193
RightHand  -2.20211 21.3976 -11.2504
LeftUpLeg  -19.8293 5.00126 11.6709
LeftLeg  37.2928 -9.23216 -6.09164
LeftFoot  -7.58803 0.0836946 1.26202
LeftToes  -42.3084 3.33339e-006 -4.73431e-007
134
root  47.8261 31.7748 25.5413 -171.065 -59.1863 177.364
RightUpLeg  -15.296 -12.0838 -23.0666
RightLeg  8.5783 -12.184 -1.03071
RightFoot  -6.14776 0.0591131 1.47847
RightToes  -21.5769 -0.0904226 -0.189378
Spine  6.26144 -1.14981 -0.932305
Spine1  12.0393 -2.17571 -2.17378
HEad  4.66531 3.22955 9.41409
LeftShoulder1  0 -2.42657e-020 -4.95415e-022
LeftArm  -19.2822 5.67135 -82.0429
LeftForeArm  46.9659 -36.8353 -7.56732
LeftHand  -0.0300296 -10.8997 -0.0552271
RightShoulder  0 2.42657e-020 1.07489e-018
RightArm  -31.6618 -11.0662 80.0924
RightForeArm  43.2284 34.5998 6.97166
RightHand  -2.26789 21.4482 -11.5664
LeftUpLeg  -19.422 4.73144 9.40593
LeftLeg  37.1077 -7.50571 -4.93241
LeftFoot  -9.32934 0.106103 1.30031
LeftToes  -39.05 3.33339e-006 -4.73431e-007
135
root  47.5424 31.8992 26.5344 -172.345 -58.1624 178.617
RightUpLeg  -15.7024 -11.6055 -22.0371
RightLeg  10.8339 -11.9949 -1.48884
RightFoot  -4.12216 0.0230674 1.01869
RightToes  -27.1274 -0.124649 -0.231513
Spine  6.19103 -1.01239 -1.01172
Spine1  11.8799 -1.91832 -2.24759
HEad  5.23693 3.24793 9.65345
LeftShoulder1  0 -2.42657e-020 -4.95415e-022
LeftArm  -18.2228 5.52349 -80.3309
LeftForeArm  45.5667 -38.824 -8.13951
LeftHand  0.0193404 -10.727 -0.576317
RightShoulder  0 2.42657e-020 1.07489e-018
RightArm  -29.2216 -11.9542 81.0532
RightForeArm  42.7513 38.5033 8.05383
RightHand  -2.34378 21.3886 -11.9979
LeftUpLeg  -19.8989 3.34527 8.19359
LeftLeg  38.1341 -5.74227 -3.93174
LeftFoot  -10.2132 0.0982565 1.09947
LeftToes  -35.8988 3.33339e-006 -4.73431e-007
136
root  47.3737 32.1047 27.3362 -174.405 -56.6395 -179.252
RightUpLeg  -16.8276 -6.93459 -19.8066
RightLeg  16.0917 -12.6622 -2.75697
RightFoot  -5.10377 0.041321 1.30485
RightToes  -25.8467 -0.116391 -0.222089
Spine  6.28252 -0.624707 -0.956666
Spine1  12.0117 -1.13697 -2.10648
HEad  5.14673 3.45048 9.80022
LeftShoulder1  0 -2.42657e-020 -4.95415e-022
LeftArm  -17.6051 5.09817 -78.7031
LeftForeArm  44.0202 -41.1535 -8.85309
LeftHand  0.0125923 -9.96157 -0.514795
RightShoulder  0 2.42657e-020 1.07489e-018
RightArm  -27.3971 -11.6857 82.0568
RightForeArm  41.8995 41.0618 8.83176
RightHand  -2.32212 21.4207 -11.8658
LeftUpLeg  -19.8482 3.5061 7.75154
LeftLeg  38.3113 -4.30352 -2.97164
LeftFoot  -10.552 0.0773771 0.837891
LeftToes  -33.0284 3.33339e-006 -4.73431e-007
137
root  47.2229 32.3251 28.0545 -175.603 -56.0313 -178.087
RightUpLeg  -17.5488 -5.94255 -17.0403
RightLeg  21.4759 -11.1388 -3.54634
RightFoot  -5.68745 0.0458308 1.30034
RightToes  -26.6929 -0.121823 -0.228336
Spine  6.37569 -0.638846 -0.970625
Spine1  12.1545 -1.12902 -2.17843
HEad  5.01406 4.06581 9.96348
LeftShoulder1  0 -2.42657e-020 -4.95415e-022
LeftArm  -18.3105 5.14656 -77.1846
LeftForeArm  42.4458 -44.1356 -9.84661
LeftHand  0.0214073 -9.44436 -0.629565
RightShoulder  0 2.42657e-020 1.07489e-018
RightArm  -24.5591 -11.1181 82.7423
RightForeArm  40.8476 43.7742 9.72837
RightHand  -2.22348 21.1935 -11.4773
LeftUpLeg  -19.4254 3.05458 7.1266
LeftLeg  37.3833 -3.64307 -2.43154
LeftFoot  -10.4569 0.0635335 0.694277
LeftToes  -30.1105 3.33339e-006 -4.73431e-007
138
root  47.0899 32.5353 28.6887 -176.371 -56.3303 -177.324
RightUpLeg  -17.3467 -10.0071 -13.9745
RightLeg  24.8809 -8.11721 -3.13664
RightFoot  -5.29826 0.0255437 0.929737
RightToes  -31.1251 -0.151745 -0.259709
Spine  6.36902 -0.855742 -0.961688
Spine1  12.0999 -1.52934 -2.22175
HEad  5.10983 4.23939 10.1636
LeftShoulder1  0 -2.42657e-020 -4.95415e-022
LeftArm  -18.8727 5.10553 -75.8435
LeftForeArm  40.6178 -46.6707 -10.7772
LeftHand  -0.00585522 -8.86624 -0.294661
RightShoulder  0 2.42657e-020 1.07489e-018
RightArm  -21.8721 -10.7299 83.102
RightForeArm  39.9234 47.0104 10.9151
RightHand  -2.13798 21.0125 -11.1244
LeftUpLeg  -19.2475 2.47154 6.38614
LeftLeg  36.2594 -3.19371 -2.04346
LeftFoot  -9.95254 0.0499467 0.573616
LeftToes  -28.0965 3.33339e-006 -4.73431e-007
139
root  46.9424 32.7417 29.2479 -176.825 -56.9304 -176.664
RightUpLeg  -16.4244 -13.5587 -11.14
RightLeg  26.6147 -7.97972 -3.3647
RightFoot  -5.64242 0.0293628 0.973509
RightToes  -31.0629 -0.151308 -0.259285
Spine  6.22837 -1.01916 -0.917938
Spine1  11.7871 -1.82579 -2.19195
HEad  5.25878 3.91797 10.4303
LeftShoulder1  0 -2.42657e-020 -4.95415e-022
LeftArm  -18.9 4.73862 -74.7624
LeftForeArm  39.2944 -49.0059 -11.7179
LeftHand  -0.0361001 -8.17848 0.135111
RightShoulder  0 2.42657e-020 1.07489e-018
RightArm  -19.5685 -10.9074 83.0049
RightForeArm  39.9284 51.1274 12.6603
RightHand  -2.09594 20.8033 -11.0151
LeftUpLeg  -19.237 1.92141 5.83136
LeftLeg  35.1603 -3.52331 -2.15939
LeftFoot  -9.19126 0.0478804 0.595651
LeftToes  -26.7963 3.33339e-006 -4.73431e-007
140
root  46.7894 32.9083 29.73 -177.092 -56.9981 -176.599
RightUpLeg  -15.0983 -15.7736 -9.05448
RightLeg  27.6171 -8.88273 -3.92451
RightFoot  -5.58195 0.0335918 1.06673
RightToes  -31.5372 -0.151723 -0.259684
Spine  6.13949 -0.918683 -1.03224
Spine1  11.5558 -1.58218 -2.43831
HEad  5.53895 3.37624 11.0144
LeftShoulder1  0 -2.42657e-020 -4.95415e-022
LeftArm  -18.6748 3.8942 -73.669
LeftForeArm  37.416 -51.3285 -12.7498
LeftHand  -0.0422879 -7.63047 0.264404
RightShoulder  0 2.42657e-020 1.07489e-018
RightArm  -17.3169 -10.9931 82.4999
RightForeArm  40.0964 55.454 14.8852
RightHand  -2.12728 20.7482 -11.2153
LeftUpLeg  -18.6117 2.41185 5.05856
LeftLeg  33.8688 -4.12475 -2.40022
LeftFoot  -8.53458 0.0456455 0.657507
LeftToes  -25.6568 3.33339e-006 -4.73431e-007
141
root  46.6689 32.9862 30.2556 -176.802 -56.8445 -177.215
RightUpLeg  -14.0598 -16.0955 -7.9511
RightLeg  28.954 -9.96858 -4.67611
RightFoot  -5.84587 0.0445096 1.24941
RightToes  -31.2172 -0.152378 -0.260319
Spine  6.01377 -0.736002 -1.19863
Spine1  11.2288 -1.16573 -2.78381
HEad  5.84135 2.74204 11.2876
LeftShoulder1  0 -2.42657e-020 -4.95415e-022
LeftArm  -18.2076 2.71694 -72.7384
LeftForeArm  36.5413 -53.7389 -13.9419
LeftHand  -0.0489902 -7.26513 0.402092
RightShoulder  0 2.42657e-020 1.07489e-018
RightArm  -15.4577 -10.5918 81.406
RightForeArm  41.0537 59.908 17.7889
RightHand  -2.13537 21.1267 -11.0475
LeftUpLeg  -18.2101 2.59156 3.86762
LeftLeg  32.9967 -4.24791 -2.38586
LeftFoot  -8.17637 0.0468293 0.65518
LeftToes  -24.5203 3.33339e-006 -4.73431e-007
142
root  46.4881 33.0561 30.657 -176.839 -56.9215 -177.65
RightUpLeg  -12.1364 -15.938 -7.19665
RightLeg  29.1798 -10.5341 -4.98698
RightFoot  -5.9816 0.0505929 1.34603
RightToes  -31.1848 -0.153278 -0.261189
Spine  5.95102 -0.586248 -1.28468
Spine1  11.0205 -0.816814 -2.98725
HEad  5.89034 2.11847 11.2933
LeftShoulder1  0 -2.42657e-020 -4.95415e-022
LeftArm  -17.2494 1.33172 -71.8611
LeftForeArm  36.2633 -56.3739 -15.4209
LeftHand  -0.0847271 -6.91079 1.03422
RightShoulder  0 2.42657e-020 1.07489e-018
RightArm  -13.6709 -9.70044 79.7972
RightForeArm  44.8235 64.5056 21.8177
RightHand  -2.2563 21.1141 -11.6969
LeftUpLeg  -17.5508 2.51579 2.88949
LeftLeg  32.2326 -4.25845 -2.31768
LeftFoot  -7.91314 0.044291 0.64035
LeftToes  -23.1785 3.33339e-006 -4.73431e-007
143
root  46.4203 33.058 31.1173 -176.85 -56.7043 -178.071
RightUpLeg  -10.7891 -15.3895 -6.77241
RightLeg  29.6159 -10.6242 -5.1275
RightFoot  -6.18026 0.0555804 1.40723
RightToes  -31.2676 -0.154424 -0.262291
Spine  5.94628 -0.368157 -1.34771
Spine1  10.8887 -0.321489 -3.1593
HEad  5.7403 1.61277 11.2269
LeftShoulder1  0 -2.42657e-020 -4.95415e-022
LeftArm  -16.4815 -0.64334 -71.2291
LeftForeArm  36.803 -58.9413 -17.0858
LeftHand  -0.117456 -6.77013 1.61725
RightShoulder  0 2.42657e-020 1.07489e-018
RightArm  -12.3743 -7.57807 77.8128
RightForeArm  49.275 68.7723 27.1788
RightHand  -2.39193 21.1643 -12.3858
LeftUpLeg  -17.5404 2.28358 1.90461
LeftLeg  32.34 -3.83712 -2.09868
LeftFoot  -7.90292 0.0403114 0.583569
LeftToes  -21.5334 3.33339e-006 -4.73431e-007
144
root  46.3451 33.0691 31.4757 -177.004 -56.206 -178.316
RightUpLeg  -9.22563 -14.681 -6.50045
RightLeg  29.4717 -10.5684 -5.06854
RightFoot  -6.26563 0.0571019 1.42097
RightToes  -31.134 -0.155819 -0.263623
Spine  5.95441 -0.126963 -1.30431
Spine1  10.7872 0.218389 -3.13973
HEad  5.45562 1.32717 10.9269
LeftShoulder1  0 -2.42657e-020 -4.95415e-022
LeftArm  -15.7228 -2.93489 -70.9081
LeftForeArm  38.0067 -61.3942 -18.9438
LeftHand  -0.172574 -6.64121 2.60646
RightShoulder  0 2.42657e-020 1.07489e-018
RightArm  -11.405 -4.68419 75.4717
RightForeArm  54.9574 72.7701 34.9468
RightHand  -2.4306 20.9953 -12.6962
LeftUpLeg  -17.2864 2.4609 1.16081
LeftLeg  32.2382 -3.47306 -1.89235
LeftFoot  -7.90587 0.0369211 0.534291
LeftToes  -20.1612 3.33339e-006 -4.73431e-007
145
root  46.3106 33.0809 31.7936 -177.199 -55.6144 -178.511
RightUpLeg  -7.70668 -14.8692 -6.5235
RightLeg  29.1203 -10.369 -4.89713
RightFoot  -5.87432 0.0484401 1.32179
RightToes  -31.9344 -0.157466 -0.265183
Spine  5.98005 0.0660893 -1.2048
Spine1  10.7158 0.639668 -2.98124
HEad  5.13927 1.20766 10.4314
LeftShoulder1  0 -2.42657e-020 -4.95415e-022
LeftArm  -14.9082 -5.83637 -70.6383
LeftForeArm  38.8682 -63.2444 -20.5677
LeftHand  -0.21317 -6.75771 3.24276
RightShoulder  0 2.42657e-020 1.07489e-018
RightArm  -11.1633 -0.6534 73.2272
RightForeArm  62.2377 75.7479 44.4377
RightHand  -2.3412 20.6437 -12.4369
LeftUpLeg  -17.0456 2.24403 0.525171
LeftLeg  32.1283 -2.75305 -1.49458
LeftFoot  -7.88886 0.0295178 0.428079
LeftToes  -18.728 3.33339e-006 -4.73431e-007
